<svg width="400" height="300" viewBox="0 0 400 300" xmlns="http://www.w3.org/2000/svg">
  <!-- Style for pixel art look if desired, but here we go for sharp clean lines -->
  
  <!-- Outer Outline (Black Thick) -->
  <path d="M40 60 H180 V100 H300 Q340 100 340 140 Q340 180 300 180 H240 Q340 180 340 220 Q340 260 300 260 H60 Q40 260 40 240 V60" 
        fill="black" />
  
  <!-- Inner Body (White) -->
  <path d="M55 75 H165 V115 H285 Q310 115 310 142 Q310 165 285 165 H220 Q310 165 310 205 Q310 245 270 245 H70 Q55 245 55 230 V75" 
        fill="white" />

  <!-- Vertical bar for the 'T' stem and separation -->
  <rect x="55" y="115" width="40" height="115" fill="white" />
  <rect x="135" y="115" width="30" height="130" fill="white" />
  
  <!-- Smiley inside the B -->
  <!-- Eyes -->
  <rect x="220" y="145" width="12" height="20" fill="black" />
  <rect x="270" y="145" width="12" height="20" fill="black" />
  
  <!-- Mouth -->
  <path d="M195 195 Q245 240 295 195" stroke="black" stroke-width="10" fill="none" stroke-linecap="round" />
</svg>
